# xmcd
#
# Track frame offsets: 
#        150
#        18142
#        35919
#        49884
#        70875
#        85972
#        149659
#        201415
#        240643
#        259164
#        286020
#        315985
#
# Disc length: 4724 seconds
#
# Revision: 0
# Processed by: cddbd v1.5.2PL0 Copyright (c) Steve Scherf et al.
# Submitted via: ExactAudioCopy v0.95a3
#
DISCID=af12720c
DTITLE=Jimi Hendrix - Studio 69 [CD15)
DYEAR=2004
DGENRE=Blues
TTITLE0=Ezy Rider 1 4-69
TTITLE1=Ezy Rider 2 4-69
TTITLE2=Last Thursday Morning 4-69
TTITLE3=Bleeding Heart Jam
TTITLE4=Rock N Roll Band
TTITLE5=Live And Let Live
TTITLE6=Woodstock Takes
TTITLE7=Doriella Du Fontaine 1
TTITLE8=Doriella Du Fontaine 2
TTITLE9=Manish Boy - composite 2004
TTITLE10=Jelly 292 - composite 2004
TTITLE11=Born Under A Bad Sign - composite 2004
EXTD=
EXTT0=
EXTT1=
EXTT2=
EXTT3=
EXTT4=
EXTT5=
EXTT6=
EXTT7=
EXTT8=
EXTT9=
EXTT10=
EXTT11=
PLAYORDER=
